<mxfile host="app.diagrams.net" modified="2023-05-22T06:48:32.003Z" agent="Mozilla/5.0 (Windows NT 10.0; Win64; x64) AppleWebKit/537.36 (KHTML, like Gecko) Chrome/113.0.0.0 Safari/537.36" version="21.3.2" etag="DZt3Kpg-tZ5MPNLegXYe" type="github">
  <diagram name="Trang-1" id="l3VDHctaQZelVNUPHXgI">
    <mxGraphModel>
      <root>
        <mxCell id="0" />
        <mxCell id="1" parent="0" />
      </root>
    </mxGraphModel>
  </diagram>
</mxfile>
